<?xml version="1.0" encoding="UTF-8" standalone="no"?>
<svg
   xmlns:dc="http://purl.org/dc/elements/1.1/"
   xmlns:cc="http://creativecommons.org/ns#"
   xmlns:rdf="http://www.w3.org/1999/02/22-rdf-syntax-ns#"
   xmlns:svg="http://www.w3.org/2000/svg"
   xmlns="http://www.w3.org/2000/svg"
   xmlns:sodipodi="http://sodipodi.sourceforge.net/DTD/sodipodi-0.dtd"
   xmlns:inkscape="http://www.inkscape.org/namespaces/inkscape"
   version="1.0"
   width="1266.9368pt"
   height="1300.3313pt"
   viewBox="0 0 1266.9368 1300.3313"
   preserveAspectRatio="xMidYMid meet"
   id="svg12"
   sodipodi:docname="logo-resto.svg"
   inkscape:version="0.92.3 (2405546, 2018-03-11)">
  <defs
     id="defs16" />
  <sodipodi:namedview
     pagecolor="#ffffff"
     bordercolor="#666666"
     borderopacity="1"
     objecttolerance="10"
     gridtolerance="10"
     guidetolerance="10"
     inkscape:pageopacity="0"
     inkscape:pageshadow="2"
     inkscape:window-width="1920"
     inkscape:window-height="1017"
     id="namedview14"
     showgrid="false"
     inkscape:zoom="0.20833333"
     inkscape:cx="723.43389"
     inkscape:cy="991.43132"
     inkscape:window-x="-8"
     inkscape:window-y="-8"
     inkscape:window-maximized="1"
     inkscape:current-layer="g4555" />
  <metadata
     id="metadata2">
Created by potrace 1.15, written by Peter Selinger 2001-2017
<rdf:RDF>
  <cc:Work
     rdf:about="">
    <dc:format>image/svg+xml</dc:format>
    <dc:type
       rdf:resource="http://purl.org/dc/dcmitype/StillImage" />
    <dc:title></dc:title>
  </cc:Work>
</rdf:RDF>
</metadata>
  <g
     transform="matrix(0.1,0,0,-0.1,330.87206,1286.5156)"
     id="g10"
     style="fill:#000000;stroke:none">
    <g
       id="g4555">
      <ellipse
         ry="5416.8853"
         rx="5596.8853"
         transform="matrix(0.70710678,-0.70710678,-0.70710678,-0.70710678,0,0)"
         cy="-6543.0479"
         cx="-2039.7931"
         id="path4528"
         style="opacity:1;vector-effect:none;fill:#54aaff;fill-opacity:1;stroke:none;stroke-width:519.93768311;stroke-linecap:butt;stroke-linejoin:round;stroke-miterlimit:4;stroke-dasharray:none;stroke-dashoffset:0;stroke-opacity:1;paint-order:markers stroke fill" />
      <path
         style="fill:#ffffff;fill-opacity:1;stroke:#54aaff;stroke-width:562.5;stroke-linejoin:round;stroke-miterlimit:4;stroke-dasharray:none;stroke-opacity:1;paint-order:markers stroke fill"
         inkscape:connector-curvature="0"
         id="path4"
         d="m 7877.1169,10712.376 c -463.8619,0 -1380.9794,-521.137 -2333.4516,-1326.5312 C 5031.7192,8951.6804 4395.3238,8320.9419 3885.4999,7741.8214 3104.1468,6851.5741 2585.1305,6068.0997 2535.6329,5701.8184 l -7.7781,-57.2757 -147.0782,-127.2791 c -79.903,-70.0037 -244.6596,-212.1329 -365.5742,-317.4911 -120.2082,-104.6517 -460.3268,-400.9298 -756.6043,-657.6093 -294.86353,-256.6798 -783.47467,-681.6513 -1085.40934,-943.9879 -301.93452,-262.3367 -642.05288,-558.6144 -756.60404,-657.6092 -803.98042,-697.9144 -760.13962,-658.3163 -780.64582,-701.4497 -62.2254,-131.5221 -8.4855,-285.6716 167.5843,-477.2971 190.9188,-206.4754 373.35207,-294.1567 518.30903,-248.1949 54.44743,16.2637 48.08347,9.8997 476.59025,479.4188 491.43904,536.6939 1083.28742,1183.6966 2312.23922,2524.3713 258.094,282.1357 531.0366,579.1197 604.5764,661.1448 94.0445,102.5298 151.3202,159.8055 188.7968,185.9685 63.6404,45.2555 4115.3615,4125.261 4393.2545,4424.3672 359.9174,386.787 556.493,618.718 636.3961,749.533 78.4888,130.815 64.3467,174.656 -56.5686,173.948 z" />
      <path
         style="fill:#ffffff;fill-opacity:1;stroke:#54aaff;stroke-width:562.5;stroke-linejoin:round;stroke-miterlimit:4;stroke-dasharray:none;stroke-opacity:1;paint-order:markers stroke fill"
         inkscape:connector-curvature="0"
         id="path6"
         d="m 5108.794,12414.211 c -309.0056,-279.307 -674.5798,-602.455 -933.3809,-824.486 -286.3783,-245.366 -534.5721,-466.69 -916.4105,-816.002 -308.2985,-281.428 -368.4026,-348.603 -449.0128,-494.267 -73.5391,-134.351 -105.3589,-253.852 -106.066,-401.6369 -0.7071,-105.3589 4.2427,-144.2498 29.6985,-217.7889 17.6777,-48.7904 47.3762,-115.2584 66.4681,-148.4925 33.234,-54.4471 35.3553,-60.8111 18.3847,-77.7817 -9.8995,-9.8995 -123.7437,-113.8442 -251.73,-230.5168 C 2438.7588,9086.5665 2150.9664,8824.2299 1926.8135,8619.8761 1703.3677,8416.2294 1377.3916,8118.5373 1202.029,7958.7313 1027.3736,7799.6323 701.39748,7501.9402 477.24456,7297.5864 253.79952,7093.9404 -70.76249,6797.6627 -244.00372,6639.9778 -417.24488,6482.293 -777.86955,6152.781 -1046.5701,5908.122 c -268.7006,-244.6589 -629.3252,-574.1708 -802.5664,-731.8556 -173.2411,-157.6848 -463.1549,-423.557 -647.0023,-590.4338 -182.434,-166.8776 -347.1898,-316.0772 -366.2817,-330.9264 -53.0328,-41.7191 -118.7938,-137.1785 -144.2498,-207.8894 -58.6895,-160.5129 -0.7068,-341.5322 159.099,-502.7529 196.5757,-196.5757 406.5867,-239.7088 594.6771,-122.3291 53.0329,33.2339 92.631,72.832 420.0215,420.0215 806.1015,854.1847 1210.56648,1282.6913 1779.787788,1885.8537 262.336332,277.8929 584.070272,618.0114 714.177212,756.6037 130.10765,138.5929 451.8412,478.7113 714.1778,756.6042 646.2956,684.4794 924.8957,980.05 1180.8684,1251.579 118.7939,125.865 303.3488,321.7336 410.829,433.4565 l 194.4544,204.3538 24.7487,-16.2634 c 128.6935,-82.0244 237.5879,-113.1371 395.9797,-113.137 110.3087,0 142.1286,4.9496 238.2951,37.4766 219.2031,74.9533 318.9052,149.1995 577.7062,432.0422 385.3732,420.7285 726.9059,803.2734 852.0637,952.4734 154.1494,185.261 459.6194,531.744 814.587,924.895 l 217.789,241.831 -38.891,43.133 -38.1837,42.427 -729.0271,-729.027 c -803.2727,-803.273 -755.1894,-760.847 -825.9,-738.219 -45.2549,14.142 -88.3884,68.589 -89.8026,113.844 -0.7072,17.678 7.0711,48.083 16.9706,65.054 10.6066,17.677 323.8542,350.724 697.2065,739.633 372.6453,389.616 686.6008,720.542 697.9145,734.684 l 19.0919,26.163 -48.0833,48.083 -48.7903,48.79 -90.5097,-82.024 c -50.2046,-45.962 -390.3229,-369.11 -756.6043,-718.421 -754.4823,-720.541 -691.5498,-670.336 -765.7959,-617.303 -51.6188,36.062 -81.3173,92.631 -69.2965,130.107 7.0711,21.214 165.4623,183.848 742.4615,760.847 l 733.2697,733.269 -55.8614,55.862 -55.8615,55.861 -132.936,-124.45 c -73.5391,-69.297 -400.9295,-385.374 -727.6129,-704.986 -326.6834,-318.198 -608.8182,-587.605 -626.4959,-598.212 -16.9705,-9.899 -47.3762,-17.677 -65.0539,-16.97 -45.2548,1.414 -99.7021,44.548 -113.8442,89.802 -22.6274,70.711 -65.0538,22.628 738.2188,825.9 l 728.32,728.32 -41.0122,41.013 -41.0122,41.012 z" />
      <path
         style="fill:#ffffff;fill-opacity:1;stroke:#54aaff;stroke-width:562.5;stroke-linejoin:round;stroke-miterlimit:4;stroke-dasharray:none;stroke-opacity:1;paint-order:markers stroke fill"
         inkscape:connector-curvature="0"
         id="path8"
         d="m 8814.0635,8604.6152 c -134.3502,93.338 -393.8584,154.8563 -663.9732,154.8563 -394.5655,1.4142 -803.9804,-119.5011 -1120.7642,-330.2189 -246.0725,-162.6338 -511.2376,-454.669 -687.3072,-755.1894 -294.1565,-503.46 -359.2103,-1052.1748 -170.4128,-1424.8201 l 24.7488,-48.7904 -46.6691,-41.0122 C 6123.5229,6137.5202 5953.8172,5981.9567 5770.6766,5814.3724 5588.243,5647.4952 5296.915,5381.6231 5123.6739,5223.9383 4950.4327,5066.2535 4661.2261,4802.5026 4480.2067,4637.0396 4299.1874,4471.5767 4009.9807,4207.8258 3836.7395,4050.141 3663.4985,3892.4561 3302.8739,3562.9444 3034.1731,3318.2851 2765.4725,3073.6263 2404.8485,2744.1148 2231.6072,2586.43 2058.3661,2428.7452 1770.5735,2166.4085 1591.6753,2003.0665 1412.7776,1839.7253 1089.6296,1544.8616 872.5477,1347.5785 603.14012,1102.2127 470.20404,976.34772 451.81934,948.06338 340.0964,784.01468 341.51096,627.03733 455.35516,453.79616 593.24098,243.78545 820.2219,117.21298 996.29184,150.44735 c 128.69326,25.45571 174.65526,60.10394 414.36466,315.3697 249.6084,265.1648 569.2207,603.16185 1167.4329,1236.72935 451.1341,478.0042 647.0027,685.1865 1187.9395,1258.6502 125.865,134.3503 447.5986,474.4686 714.1778,756.6042 266.5793,282.1356 587.6057,622.9611 714.1779,756.6043 126.5721,133.6432 446.1843,473.0544 710.6423,753.0687 264.4579,280.0143 511.2382,540.9367 548.7148,579.8276 l 67.1752,71.4177 70.7107,-31.1126 c 453.9625,-199.4042 1079.0449,-63.6397 1641.1948,357.0889 120.2082,89.0954 313.2484,270.8219 393.8578,371.2304 255.2656,313.2483 408.7078,691.5504 444.7702,1099.551 38.1838,417.193 -67.1751,796.9094 -257.3869,929.1384 z" />
    </g>
  </g>
</svg>
